<svg viewBox="0 0 1920 341" fill="none" xmlns="http://www.w3.org/2000/svg">
<path d="M0 87.3736C0 63.166 18.0257 42.7468 42.0463 39.7442L225.977 16.7529C394.669 -4.33365 565.331 -4.33366 734.023 16.7529L960 45L1200 70.75L1221.52 73.059C1366.76 88.6416 1513.24 88.6416 1658.48 73.059L1866.88 50.6994C1895.25 47.6552 1920 69.8894 1920 98.4255V223.085C1920 247.944 1901.02 268.69 1876.26 270.896L1179.85 332.919C1033.71 345.935 886.586 343.209 741.024 324.786L41.9731 236.312C17.9851 233.276 0 212.871 0 188.692V87.3736Z" fill="#FFCB66"/>
</svg>
