<svg viewBox="0 0 261 49" fill="none" xmlns="http://www.w3.org/2000/svg">
<style>
.hide-full-xs .signet {
    display: none;
}

@media only screen and (max-width: 400px) {
    .hide-full-xs  .signet {
        display: unset;
    }

    .hide-full-xs .full {
        display: none;
    }
}
</style>
<path class="full" d="M71.017 28.7495C71.017 30.3925 70.4069 31.6761 69.1866 32.6002C67.9664 33.5244 66.2009 33.9865 63.8902 33.9865C62.9037 33.9865 61.995 33.8967 61.1641 33.717C60.3333 33.5629 59.6194 33.3576 59.0222 33.1008C58.451 32.8185 57.9967 32.5104 57.6592 32.1767C57.3476 31.8173 57.1918 31.4579 57.1918 31.0985C57.1918 30.7904 57.2697 30.4952 57.4255 30.2128C57.6072 29.9304 57.8669 29.6865 58.2044 29.4811C58.9054 29.9946 59.7232 30.4567 60.6579 30.8674C61.5925 31.2525 62.657 31.445 63.8513 31.445C66.5514 31.445 67.9015 30.5465 67.9015 28.7495C67.9015 27.2862 67.0058 26.3364 65.2143 25.8999L61.982 25.0528C60.3982 24.642 59.2429 24.0516 58.5159 23.2814C57.789 22.4856 57.4255 21.4716 57.4255 20.2394C57.4255 19.5719 57.5553 18.9301 57.8149 18.314C58.1005 17.6979 58.5289 17.1588 59.1001 16.6967C59.6713 16.2346 60.3723 15.8752 61.2031 15.6185C62.0599 15.3361 63.0594 15.1949 64.2018 15.1949C66.0192 15.1949 67.4861 15.4644 68.6025 16.0035C69.7189 16.517 70.2771 17.1202 70.2771 17.8134C70.2771 18.1471 70.1862 18.4423 70.0045 18.6991C69.8487 18.9558 69.628 19.1483 69.3424 19.2767C68.8751 18.9686 68.213 18.6349 67.3563 18.2755C66.4995 17.9161 65.4869 17.7364 64.3186 17.7364C63.1503 17.7364 62.2156 17.9546 61.5146 18.391C60.8396 18.8274 60.5021 19.4435 60.5021 20.2394C60.5021 20.8298 60.6968 21.3304 61.0863 21.7411C61.4757 22.1519 62.1248 22.4599 63.0335 22.6653L65.7206 23.3199C67.4861 23.7564 68.8102 24.411 69.6929 25.2838C70.5757 26.131 71.017 27.2862 71.017 28.7495Z" fill="#274171"/>
<path class="full" d="M90.6896 24.5907C90.6896 26.0283 90.4819 27.3247 90.0665 28.4799C89.6511 29.6352 89.054 30.6235 88.2751 31.445C87.5222 32.2665 86.6005 32.8955 85.51 33.3319C84.4196 33.7683 83.1994 33.9865 81.8493 33.9865C80.4992 33.9865 79.279 33.7683 78.1885 33.3319C77.0981 32.8955 76.1634 32.2665 75.3846 31.445C74.6057 30.6235 74.0085 29.6352 73.5931 28.4799C73.1777 27.3247 72.97 26.0283 72.97 24.5907C72.97 23.1531 73.1777 21.8567 73.5931 20.7014C74.0345 19.5462 74.6446 18.5579 75.4235 17.7364C76.2024 16.9149 77.137 16.2859 78.2275 15.8495C79.3179 15.4131 80.5252 15.1949 81.8493 15.1949C83.1734 15.1949 84.3807 15.4131 85.4711 15.8495C86.5615 16.2859 87.4832 16.9149 88.2361 17.7364C89.015 18.5579 89.6122 19.5462 90.0276 20.7014C90.4689 21.8567 90.6896 23.1531 90.6896 24.5907ZM81.8493 17.7364C80.0838 17.7364 78.6948 18.3397 77.6823 19.5462C76.6697 20.7528 76.1634 22.4343 76.1634 24.5907C76.1634 26.7728 76.6567 28.4671 77.6433 29.6737C78.6559 30.8546 80.0579 31.445 81.8493 31.445C83.6407 31.445 85.0297 30.8417 86.0163 29.6352C87.0029 28.4286 87.4962 26.7471 87.4962 24.5907C87.4962 22.4343 86.9899 20.7528 85.9774 19.5462C84.9908 18.3397 83.6148 17.7364 81.8493 17.7364Z" fill="#274171"/>
<path class="full" d="M101.895 17.7749C101.012 17.7749 100.195 17.9289 99.4417 18.237C98.6888 18.5194 98.0397 18.9558 97.4945 19.5462C96.9493 20.111 96.5209 20.8298 96.2094 21.7026C95.8978 22.5498 95.742 23.5253 95.742 24.6292C95.742 26.837 96.3002 28.5313 97.4166 29.7122C98.533 30.8674 100.026 31.445 101.895 31.445C102.986 31.445 103.894 31.3038 104.621 31.0214C105.348 30.7134 105.997 30.3668 106.569 29.9817C106.854 30.1358 107.088 30.3283 107.27 30.5594C107.451 30.7904 107.542 31.0728 107.542 31.4065C107.542 31.7659 107.399 32.0996 107.114 32.4077C106.828 32.7158 106.426 32.9853 105.906 33.2164C105.413 33.4474 104.816 33.6271 104.115 33.7555C103.44 33.9095 102.7 33.9865 101.895 33.9865C100.545 33.9865 99.2989 33.794 98.1566 33.4089C97.0142 33.0238 96.0276 32.4462 95.1968 31.6761C94.366 30.9059 93.7169 29.9432 93.2496 28.788C92.7823 27.6071 92.5486 26.2208 92.5486 24.6292C92.5486 23.0632 92.7952 21.7026 93.2885 20.5474C93.7818 19.3665 94.4439 18.3782 95.2747 17.5823C96.1055 16.7865 97.0791 16.1961 98.1955 15.811C99.3379 15.4002 100.545 15.1949 101.817 15.1949C102.622 15.1949 103.362 15.2719 104.037 15.4259C104.738 15.5543 105.335 15.7468 105.829 16.0035C106.322 16.2602 106.698 16.5555 106.958 16.8892C107.244 17.1973 107.386 17.5182 107.386 17.8519C107.386 18.1599 107.295 18.4295 107.114 18.6605C106.932 18.8916 106.698 19.0713 106.413 19.1996C105.842 18.8146 105.218 18.4808 104.543 18.1985C103.868 17.9161 102.986 17.7749 101.895 17.7749Z" fill="#274171"/>
<path class="full" d="M113.911 33.4089C113.781 33.4602 113.586 33.5116 113.327 33.5629C113.067 33.64 112.782 33.6785 112.47 33.6785C111.354 33.6785 110.795 33.2164 110.795 32.2922V15.7725C110.925 15.7211 111.12 15.6698 111.38 15.6185C111.665 15.5414 111.964 15.5029 112.275 15.5029C113.366 15.5029 113.911 15.9779 113.911 16.9277V33.4089ZM110.328 10.0734C110.328 9.53428 110.51 9.08502 110.873 8.72562C111.263 8.34055 111.756 8.14801 112.353 8.14801C112.95 8.14801 113.431 8.34055 113.794 8.72562C114.158 9.08502 114.339 9.53428 114.339 10.0734C114.339 10.6125 114.158 11.0746 113.794 11.4597C113.431 11.8191 112.95 11.9988 112.353 11.9988C111.756 11.9988 111.263 11.8191 110.873 11.4597C110.51 11.0746 110.328 10.6125 110.328 10.0734Z" fill="#274171"/>
<path class="full" d="M134.754 24.5907C134.754 26.0283 134.547 27.3247 134.131 28.4799C133.716 29.6352 133.119 30.6235 132.34 31.445C131.587 32.2665 130.665 32.8955 129.575 33.3319C128.484 33.7683 127.264 33.9865 125.914 33.9865C124.564 33.9865 123.344 33.7683 122.253 33.3319C121.163 32.8955 120.228 32.2665 119.449 31.445C118.67 30.6235 118.073 29.6352 117.658 28.4799C117.242 27.3247 117.035 26.0283 117.035 24.5907C117.035 23.1531 117.242 21.8567 117.658 20.7014C118.099 19.5462 118.709 18.5579 119.488 17.7364C120.267 16.9149 121.202 16.2859 122.292 15.8495C123.383 15.4131 124.59 15.1949 125.914 15.1949C127.238 15.1949 128.445 15.4131 129.536 15.8495C130.626 16.2859 131.548 16.9149 132.301 17.7364C133.08 18.5579 133.677 19.5462 134.092 20.7014C134.534 21.8567 134.754 23.1531 134.754 24.5907ZM125.914 17.7364C124.149 17.7364 122.76 18.3397 121.747 19.5462C120.734 20.7528 120.228 22.4343 120.228 24.5907C120.228 26.7728 120.721 28.4671 121.708 29.6737C122.721 30.8546 124.123 31.445 125.914 31.445C127.705 31.445 129.094 30.8417 130.081 29.6352C131.068 28.4286 131.561 26.7471 131.561 24.5907C131.561 22.4343 131.055 20.7528 130.042 19.5462C129.056 18.3397 127.68 17.7364 125.914 17.7364Z" fill="#274171"/>
<path class="full" d="M166.795 33.4474C166.51 33.5244 166.133 33.5886 165.666 33.6399C165.198 33.717 164.679 33.7555 164.108 33.7555C162.94 33.7555 162.096 33.5758 161.577 33.2164C161.083 32.8313 160.837 32.0997 160.837 31.0214V21.4716C160.837 20.6244 160.603 20.0083 160.136 19.6232C159.668 19.2125 159.032 19.0071 158.227 19.0071C157.708 19.0071 157.215 19.097 156.748 19.2767C156.306 19.4564 155.904 19.6874 155.54 19.9698C155.566 20.0982 155.579 20.2265 155.579 20.3549C155.605 20.4832 155.618 20.6116 155.618 20.7399V33.4474C155.333 33.5244 154.956 33.5886 154.489 33.6399C154.021 33.717 153.502 33.7555 152.931 33.7555C151.763 33.7555 150.919 33.5758 150.4 33.2164C149.906 32.8313 149.66 32.0997 149.66 31.0214V21.4716C149.66 20.6244 149.4 20.0083 148.881 19.6232C148.362 19.2125 147.725 19.0071 146.973 19.0071C146.427 19.0071 145.934 19.097 145.493 19.2767C145.051 19.4307 144.688 19.5847 144.402 19.7388V33.4474C144.143 33.5244 143.779 33.5886 143.312 33.6399C142.844 33.717 142.325 33.7555 141.754 33.7555C140.586 33.7555 139.742 33.5758 139.223 33.2164C138.703 32.8313 138.444 32.0997 138.444 31.0214V19.1226C138.444 18.4552 138.587 17.9161 138.872 17.5053C139.158 17.0946 139.56 16.7095 140.079 16.3501C140.936 15.7596 141.988 15.2847 143.234 14.9253C144.506 14.5659 145.83 14.3862 147.206 14.3862C148.297 14.3862 149.322 14.5402 150.283 14.8483C151.269 15.1307 152.165 15.5799 152.97 16.1961C153.749 15.6826 154.632 15.2591 155.618 14.9253C156.605 14.5659 157.773 14.3862 159.123 14.3862C160.136 14.3862 161.096 14.5146 162.005 14.7713C162.94 15.0023 163.757 15.4002 164.458 15.965C165.159 16.5041 165.718 17.2229 166.133 18.1214C166.574 18.9943 166.795 20.0597 166.795 21.3176V33.4474Z" fill="#274171"/>
<path class="full" d="M174.694 26.6701C175.057 27.7483 175.693 28.5185 176.602 28.9805C177.511 29.417 178.562 29.6352 179.757 29.6352C180.847 29.6352 181.872 29.494 182.833 29.2116C183.794 28.9035 184.573 28.5698 185.17 28.2104C185.559 28.4671 185.884 28.8008 186.143 29.2116C186.403 29.6223 186.533 30.0716 186.533 30.5594C186.533 31.1498 186.351 31.6632 185.988 32.0997C185.624 32.5361 185.118 32.9083 184.469 33.2164C183.846 33.4988 183.093 33.7041 182.21 33.8325C181.353 33.9865 180.406 34.0635 179.367 34.0635C177.835 34.0635 176.42 33.8582 175.122 33.4474C173.824 33.011 172.708 32.382 171.773 31.5605C170.838 30.7134 170.098 29.6608 169.553 28.4029C169.034 27.145 168.774 25.6689 168.774 23.9746C168.774 22.3316 169.034 20.9068 169.553 19.7002C170.098 18.4937 170.812 17.4925 171.695 16.6967C172.604 15.9008 173.629 15.3232 174.772 14.9638C175.94 14.5788 177.134 14.3862 178.355 14.3862C179.679 14.3862 180.886 14.5916 181.976 15.0023C183.093 15.3874 184.04 15.9394 184.819 16.6582C185.624 17.377 186.247 18.237 186.689 19.2382C187.13 20.2394 187.351 21.3304 187.351 22.5113C187.351 23.3328 187.13 23.9489 186.689 24.3596C186.247 24.7704 185.624 25.0399 184.819 25.1683L174.694 26.6701ZM178.393 18.7376C177.277 18.7376 176.342 19.0841 175.59 19.7773C174.863 20.4447 174.434 21.4202 174.304 22.7038L181.743 21.5101C181.691 20.8426 181.392 20.2137 180.847 19.6232C180.302 19.0328 179.484 18.7376 178.393 18.7376Z" fill="#274171"/>
<path class="full" d="M195.177 27.3632C195.177 28.082 195.411 28.6083 195.878 28.942C196.346 29.2501 196.995 29.4041 197.825 29.4041C198.215 29.4041 198.63 29.3656 199.072 29.2886C199.513 29.1859 199.889 29.0704 200.201 28.942C200.435 29.1988 200.629 29.494 200.785 29.8277C200.941 30.1614 201.019 30.5465 201.019 30.9829C201.019 31.8814 200.655 32.6259 199.928 33.2164C199.227 33.7811 197.994 34.0635 196.229 34.0635C194.048 34.0635 192.347 33.5758 191.127 32.6002C189.907 31.5991 189.297 29.9817 189.297 27.7483V10.4585C189.582 10.3814 189.959 10.3044 190.426 10.2274C190.893 10.1247 191.4 10.0734 191.945 10.0734C193.087 10.0734 193.905 10.2788 194.398 10.6895C194.918 11.0746 195.177 11.7934 195.177 12.8459V15.3489H200.552C200.681 15.6056 200.811 15.9394 200.941 16.3501C201.071 16.7352 201.136 17.1459 201.136 17.5823C201.136 18.4038 200.941 18.9943 200.552 19.3537C200.188 19.7131 199.708 19.8928 199.111 19.8928H195.177V27.3632Z" fill="#274171"/>
<path class="full" d="M209.26 33.4474C209 33.5244 208.636 33.5886 208.169 33.6399C207.702 33.717 207.182 33.7555 206.611 33.7555C205.443 33.7555 204.599 33.5758 204.08 33.2164C203.561 32.8313 203.301 32.0997 203.301 31.0214V19.2767C203.301 18.5579 203.483 17.9417 203.846 17.4283C204.21 16.9149 204.716 16.4656 205.365 16.0805C206.222 15.5671 207.247 15.1692 208.442 14.8868C209.662 14.5788 210.934 14.4247 212.258 14.4247C214.958 14.4247 216.308 15.3232 216.308 17.1202C216.308 17.5567 216.243 17.9546 216.114 18.314C215.984 18.6734 215.841 18.9814 215.685 19.2382C215.088 19.1098 214.361 19.0456 213.504 19.0456C212.752 19.0456 211.999 19.1355 211.246 19.3152C210.493 19.4949 209.831 19.7388 209.26 20.0468V33.4474Z" fill="#274171"/>
<path class="full" d="M224.03 33.4474C223.77 33.5244 223.407 33.5886 222.94 33.6399C222.472 33.717 221.953 33.7555 221.382 33.7555C220.213 33.7555 219.37 33.5758 218.85 33.2164C218.357 32.8313 218.11 32.0997 218.11 31.0214V15.1949C218.37 15.1179 218.734 15.0408 219.201 14.9638C219.668 14.8868 220.188 14.8483 220.759 14.8483C221.927 14.8483 222.758 15.0408 223.251 15.4259C223.77 15.811 224.03 16.5426 224.03 17.6208V33.4474ZM217.76 9.6498C217.76 8.77696 218.059 8.03249 218.656 7.41637C219.279 6.80025 220.084 6.49219 221.07 6.49219C222.057 6.49219 222.849 6.80025 223.446 7.41637C224.069 8.03249 224.38 8.77696 224.38 9.6498C224.38 10.5483 224.069 11.3056 223.446 11.9217C222.849 12.5379 222.057 12.8459 221.07 12.8459C220.084 12.8459 219.279 12.5379 218.656 11.9217C218.059 11.3056 217.76 10.5483 217.76 9.6498Z" fill="#274171"/>
<path class="full" d="M237.677 19.0456C236.275 19.0456 235.08 19.4949 234.094 20.3934C233.107 21.2662 232.614 22.5626 232.614 24.2826C232.614 26.0026 233.081 27.2862 234.016 28.1334C234.976 28.9805 236.184 29.4041 237.638 29.4041C238.468 29.4041 239.195 29.3014 239.819 29.0961C240.468 28.865 241.013 28.634 241.454 28.4029C241.896 28.7367 242.233 29.0961 242.467 29.4811C242.726 29.8405 242.856 30.2898 242.856 30.8289C242.856 31.8044 242.337 32.5874 241.298 33.1779C240.26 33.7683 238.819 34.0635 236.976 34.0635C235.418 34.0635 233.99 33.8582 232.692 33.4474C231.42 33.0367 230.329 32.4205 229.42 31.5991C228.512 30.7776 227.811 29.7635 227.317 28.557C226.824 27.3247 226.577 25.8999 226.577 24.2826C226.577 22.614 226.85 21.1635 227.395 19.9313C227.941 18.6991 228.68 17.6722 229.615 16.8507C230.55 16.0292 231.64 15.4131 232.886 15.0023C234.133 14.5916 235.444 14.3862 236.82 14.3862C238.611 14.3862 240.013 14.7071 241.026 15.3489C242.064 15.9907 242.584 16.7994 242.584 17.7749C242.584 18.237 242.467 18.6605 242.233 19.0456C242.025 19.4307 241.766 19.7644 241.454 20.0468C240.987 19.7901 240.429 19.5591 239.78 19.3537C239.156 19.1483 238.456 19.0456 237.677 19.0456Z" fill="#274171"/>
<path class="full" d="M260.321 28.0564C260.321 29.9561 259.607 31.445 258.18 32.5232C256.752 33.5758 254.649 34.102 251.871 34.102C250.78 34.102 249.781 34.025 248.872 33.871C247.989 33.717 247.223 33.4859 246.574 33.1779C245.925 32.8698 245.419 32.4847 245.055 32.0226C244.692 31.5605 244.51 31.0214 244.51 30.4053C244.51 29.8405 244.627 29.3656 244.861 28.9805C245.094 28.5698 245.393 28.2361 245.756 27.9794C246.509 28.4158 247.366 28.8008 248.327 29.1346C249.287 29.4683 250.404 29.6352 251.676 29.6352C253.519 29.6352 254.441 29.1217 254.441 28.0949C254.441 27.6585 254.272 27.3247 253.935 27.0937C253.623 26.8626 253.078 26.6573 252.299 26.4776L250.741 26.131C248.612 25.6946 247.028 25.0271 245.99 24.1286C244.951 23.2044 244.432 21.9208 244.432 20.2779C244.432 18.4552 245.172 17.0176 246.652 15.965C248.158 14.8868 250.17 14.3477 252.688 14.3477C253.623 14.3477 254.506 14.4247 255.337 14.5788C256.167 14.7071 256.881 14.9125 257.479 15.1949C258.076 15.4773 258.543 15.8367 258.881 16.2731C259.244 16.6838 259.426 17.1716 259.426 17.7364C259.426 18.2498 259.322 18.7119 259.114 19.1226C258.906 19.5077 258.634 19.8286 258.296 20.0853C258.089 19.957 257.777 19.8158 257.362 19.6617C256.972 19.5077 256.544 19.3665 256.077 19.2382C255.609 19.1098 255.116 19.0071 254.597 18.9301C254.077 18.8531 253.597 18.8146 253.156 18.8146C252.247 18.8146 251.533 18.9429 251.014 19.1996C250.52 19.4307 250.274 19.7901 250.274 20.2779C250.274 20.6373 250.417 20.9197 250.702 21.125C250.988 21.3304 251.507 21.5229 252.26 21.7026L253.74 22.0492C256.102 22.5626 257.79 23.3071 258.803 24.2826C259.815 25.2582 260.321 26.5161 260.321 28.0564Z" fill="#274171"/>
<path class="full" d="M26.465 32.7647C26.465 35.8565 23.9586 38.3629 20.8668 38.3629C17.775 38.3629 15.2686 35.8565 15.2686 32.7647C15.2686 29.6729 17.775 27.1665 20.8668 27.1665C23.9586 27.1665 26.465 29.6729 26.465 32.7647Z" fill="#61C0F9"/>
<path class="full" d="M15.2686 16.3877C15.2686 13.2959 17.775 10.7896 20.8668 10.7896C23.9586 10.7896 26.465 13.2959 26.465 16.3877C26.465 19.4795 23.9586 21.9859 20.8668 21.9859C17.775 21.9859 15.2686 19.4795 15.2686 16.3877Z" fill="#FF9899"/>
<path class="full" d="M7.23279 48.1865C6.59871 48.7532 5.62089 48.7014 5.09615 48.0321C1.79407 43.8209 -0.0100297 38.6095 4.19421e-05 33.2285C0.0101135 27.8474 1.83371 22.6428 5.15153 18.4439C5.67877 17.7767 6.65678 17.7286 7.28874 18.2976L12.7313 23.1985C13.3632 23.7675 13.406 24.7367 12.9124 25.4293C11.2929 27.7019 10.4088 30.4322 10.4035 33.2479C10.3983 36.0637 11.2721 38.7972 12.8831 41.0759C13.3741 41.7703 13.3277 42.7393 12.6936 43.306L7.23279 48.1865Z" fill="#02B4C1"/>
<path class="full" d="M34.4995 0.965213C35.1336 0.39852 36.1114 0.450315 36.6361 1.11953C39.9382 5.33073 41.7423 10.5422 41.7322 15.9232C41.7222 21.3043 39.8986 26.5089 36.5808 30.7077C36.0535 31.375 35.0755 31.4231 34.4436 30.8541L29.001 25.9532C28.3691 25.3841 28.3263 24.4149 28.8199 23.7224C30.4394 21.4498 31.3235 18.7195 31.3287 15.9037C31.334 13.088 30.4602 10.3544 28.8491 8.07578C28.3582 7.38139 28.4046 6.41235 29.0387 5.84565L34.4995 0.965213Z" fill="#FFCB66"/>
<path class="signet" d="M26.4649 32.6892C26.4649 35.781 23.9585 38.2874 20.8667 38.2874C17.775 38.2874 15.2686 35.781 15.2686 32.6892C15.2686 29.5974 17.775 27.091 20.8667 27.091C23.9585 27.091 26.4649 29.5974 26.4649 32.6892Z" fill="#61C0F9"/>
<path class="signet" d="M15.2686 16.3123C15.2686 13.2205 17.775 10.7141 20.8667 10.7141C23.9585 10.7141 26.4649 13.2205 26.4649 16.3123C26.4649 19.4041 23.9585 21.9105 20.8667 21.9105C17.775 21.9105 15.2686 19.4041 15.2686 16.3123Z" fill="#FF9899"/>
<path class="signet" d="M7.23279 48.1105C6.59871 48.6772 5.62089 48.6254 5.09615 47.9562C1.79407 43.745 -0.0100297 38.5336 4.19421e-05 33.1525C0.0101135 27.7715 1.83371 22.5668 5.15153 18.368C5.67877 17.7008 6.65678 17.6526 7.28874 18.2217L12.7313 23.1226C13.3632 23.6916 13.406 24.6608 12.9124 25.3534C11.2929 27.626 10.4088 30.3562 10.4035 33.172C10.3983 35.9878 11.2721 38.7213 12.8831 41C13.3741 41.6944 13.3277 42.6634 12.6936 43.2301L7.23279 48.1105Z" fill="#02B4C1"/>
<path class="signet" d="M34.4997 0.88953C35.1338 0.322836 36.1116 0.374632 36.6363 1.04385C39.9384 5.25505 41.7425 10.4665 41.7324 15.8475C41.7224 21.2286 39.8988 26.4332 36.5809 30.632C36.0537 31.2993 35.0757 31.3474 34.4437 30.7784L29.0012 25.8775C28.3692 25.3085 28.3265 24.3392 28.82 23.6467C30.4396 21.3741 31.3237 18.6438 31.3289 15.8281C31.3342 13.0123 30.4604 10.2787 28.8493 8.00009C28.3584 7.3057 28.4048 6.33666 29.0388 5.76997L34.4997 0.88953Z" fill="#FFCB66"/>
</svg>
