<svg viewBox="0 0 42 49" fill="none" xmlns="http://www.w3.org/2000/svg">
<path class="signet" d="M26.4649 32.6892C26.4649 35.781 23.9585 38.2874 20.8667 38.2874C17.775 38.2874 15.2686 35.781 15.2686 32.6892C15.2686 29.5974 17.775 27.091 20.8667 27.091C23.9585 27.091 26.4649 29.5974 26.4649 32.6892Z" fill="#61C0F9"/>
<path class="signet" d="M15.2686 16.3123C15.2686 13.2205 17.775 10.7141 20.8667 10.7141C23.9585 10.7141 26.4649 13.2205 26.4649 16.3123C26.4649 19.4041 23.9585 21.9105 20.8667 21.9105C17.775 21.9105 15.2686 19.4041 15.2686 16.3123Z" fill="#FF9899"/>
<path class="signet" d="M7.23279 48.1105C6.59871 48.6772 5.62089 48.6254 5.09615 47.9562C1.79407 43.745 -0.0100297 38.5336 4.19421e-05 33.1525C0.0101135 27.7715 1.83371 22.5668 5.15153 18.368C5.67877 17.7008 6.65678 17.6526 7.28874 18.2217L12.7313 23.1226C13.3632 23.6916 13.406 24.6608 12.9124 25.3534C11.2929 27.626 10.4088 30.3562 10.4035 33.172C10.3983 35.9878 11.2721 38.7213 12.8831 41C13.3741 41.6944 13.3277 42.6634 12.6936 43.2301L7.23279 48.1105Z" fill="#02B4C1"/>
<path class="signet" d="M34.4997 0.88953C35.1338 0.322836 36.1116 0.374632 36.6363 1.04385C39.9384 5.25505 41.7425 10.4665 41.7324 15.8475C41.7224 21.2286 39.8988 26.4332 36.5809 30.632C36.0537 31.2993 35.0757 31.3474 34.4437 30.7784L29.0012 25.8775C28.3692 25.3085 28.3265 24.3392 28.82 23.6467C30.4396 21.3741 31.3237 18.6438 31.3289 15.8281C31.3342 13.0123 30.4604 10.2787 28.8493 8.00009C28.3584 7.3057 28.4048 6.33666 29.0388 5.76997L34.4997 0.88953Z" fill="#FFCB66"/>
</svg>
